<mxfile host="Electron" agent="Mozilla/5.0 (Macintosh; Intel Mac OS X 10_15_7) AppleWebKit/537.36 (KHTML, like Gecko) draw.io/25.0.2 Chrome/128.0.6613.186 Electron/32.2.5 Safari/537.36" version="25.0.2">
  <diagram name="Page-1" id="gNxw8MddvVBNjZTbIHWo">
    <mxGraphModel dx="1114" dy="999" grid="1" gridSize="10" guides="1" tooltips="1" connect="1" arrows="1" fold="1" page="1" pageScale="1" pageWidth="850" pageHeight="1100" math="0" shadow="0">
      <root>
        <mxCell id="0" />
        <mxCell id="1" parent="0" />
        <mxCell id="H3SU6zbXUFuWfZ92cG2d-4" value="&lt;font style=&quot;font-size: 16px;&quot;&gt;Champion Bracket&lt;/font&gt;" style="text;html=1;align=left;verticalAlign=middle;whiteSpace=wrap;rounded=0;" parent="1" vertex="1">
          <mxGeometry x="9" y="30" width="141" height="30" as="geometry" />
        </mxCell>
        <mxCell id="H3SU6zbXUFuWfZ92cG2d-8" value="" style="group" parent="1" vertex="1" connectable="0">
          <mxGeometry x="289" y="120" width="320" height="70" as="geometry" />
        </mxCell>
        <mxCell id="H3SU6zbXUFuWfZ92cG2d-1" value="" style="endArrow=none;html=1;rounded=0;" parent="H3SU6zbXUFuWfZ92cG2d-8" edge="1">
          <mxGeometry width="50" height="50" relative="1" as="geometry">
            <mxPoint as="sourcePoint" />
            <mxPoint x="140" as="targetPoint" />
          </mxGeometry>
        </mxCell>
        <mxCell id="H3SU6zbXUFuWfZ92cG2d-2" value="" style="endArrow=none;html=1;rounded=0;" parent="H3SU6zbXUFuWfZ92cG2d-8" edge="1">
          <mxGeometry width="50" height="50" relative="1" as="geometry">
            <mxPoint y="140" as="sourcePoint" />
            <mxPoint x="140" y="140" as="targetPoint" />
          </mxGeometry>
        </mxCell>
        <mxCell id="H3SU6zbXUFuWfZ92cG2d-3" value="" style="endArrow=none;html=1;rounded=0;" parent="H3SU6zbXUFuWfZ92cG2d-8" edge="1">
          <mxGeometry width="50" height="50" relative="1" as="geometry">
            <mxPoint x="140" y="140" as="sourcePoint" />
            <mxPoint x="140" as="targetPoint" />
          </mxGeometry>
        </mxCell>
        <mxCell id="H3SU6zbXUFuWfZ92cG2d-5" value="Race 5" style="text;html=1;align=right;verticalAlign=middle;whiteSpace=wrap;rounded=0;" parent="H3SU6zbXUFuWfZ92cG2d-8" vertex="1">
          <mxGeometry x="40" y="54" width="90" height="30" as="geometry" />
        </mxCell>
        <mxCell id="H3SU6zbXUFuWfZ92cG2d-7" value="" style="endArrow=none;html=1;rounded=0;" parent="H3SU6zbXUFuWfZ92cG2d-8" edge="1">
          <mxGeometry width="50" height="50" relative="1" as="geometry">
            <mxPoint x="140" y="70" as="sourcePoint" />
            <mxPoint x="300" y="70" as="targetPoint" />
          </mxGeometry>
        </mxCell>
        <mxCell id="H3SU6zbXUFuWfZ92cG2d-9" value="" style="group" parent="1" vertex="1" connectable="0">
          <mxGeometry x="289" y="390" width="360" height="70" as="geometry" />
        </mxCell>
        <mxCell id="H3SU6zbXUFuWfZ92cG2d-14" value="" style="endArrow=none;html=1;rounded=0;" parent="H3SU6zbXUFuWfZ92cG2d-9" edge="1">
          <mxGeometry width="50" height="50" relative="1" as="geometry">
            <mxPoint x="140" y="64" as="sourcePoint" />
            <mxPoint x="300" y="64" as="targetPoint" />
          </mxGeometry>
        </mxCell>
        <mxCell id="H3SU6zbXUFuWfZ92cG2d-38" value="Winner Race 6" style="text;html=1;align=center;verticalAlign=middle;whiteSpace=wrap;rounded=0;" parent="H3SU6zbXUFuWfZ92cG2d-9" vertex="1">
          <mxGeometry x="190" y="60" width="90" height="30" as="geometry" />
        </mxCell>
        <mxCell id="H3SU6zbXUFuWfZ92cG2d-15" value="" style="group" parent="1" vertex="1" connectable="0">
          <mxGeometry x="368" y="784" width="320" height="70" as="geometry" />
        </mxCell>
        <mxCell id="H3SU6zbXUFuWfZ92cG2d-16" value="" style="endArrow=none;html=1;rounded=0;" parent="H3SU6zbXUFuWfZ92cG2d-15" edge="1">
          <mxGeometry width="50" height="50" relative="1" as="geometry">
            <mxPoint x="62" as="sourcePoint" />
            <mxPoint x="222" as="targetPoint" />
          </mxGeometry>
        </mxCell>
        <mxCell id="H3SU6zbXUFuWfZ92cG2d-17" value="" style="endArrow=none;html=1;rounded=0;" parent="H3SU6zbXUFuWfZ92cG2d-15" edge="1">
          <mxGeometry width="50" height="50" relative="1" as="geometry">
            <mxPoint x="62" y="70" as="sourcePoint" />
            <mxPoint x="222" y="70" as="targetPoint" />
          </mxGeometry>
        </mxCell>
        <mxCell id="H3SU6zbXUFuWfZ92cG2d-18" value="" style="endArrow=none;html=1;rounded=0;" parent="H3SU6zbXUFuWfZ92cG2d-15" edge="1">
          <mxGeometry width="50" height="50" relative="1" as="geometry">
            <mxPoint x="222" y="70" as="sourcePoint" />
            <mxPoint x="222" as="targetPoint" />
          </mxGeometry>
        </mxCell>
        <mxCell id="H3SU6zbXUFuWfZ92cG2d-19" value="Race 8" style="text;html=1;align=right;verticalAlign=middle;whiteSpace=wrap;rounded=0;" parent="H3SU6zbXUFuWfZ92cG2d-15" vertex="1">
          <mxGeometry x="122" y="20" width="90" height="30" as="geometry" />
        </mxCell>
        <mxCell id="H3SU6zbXUFuWfZ92cG2d-20" value="" style="endArrow=none;html=1;rounded=0;" parent="H3SU6zbXUFuWfZ92cG2d-15" edge="1">
          <mxGeometry width="50" height="50" relative="1" as="geometry">
            <mxPoint x="222" y="36" as="sourcePoint" />
            <mxPoint x="412" y="36" as="targetPoint" />
          </mxGeometry>
        </mxCell>
        <mxCell id="H3SU6zbXUFuWfZ92cG2d-21" value="&lt;font style=&quot;font-size: 16px;&quot;&gt;Consolation Races&lt;/font&gt;" style="text;html=1;align=left;verticalAlign=middle;whiteSpace=wrap;rounded=0;" parent="1" vertex="1">
          <mxGeometry x="9" y="594" width="151" height="30" as="geometry" />
        </mxCell>
        <mxCell id="H3SU6zbXUFuWfZ92cG2d-22" value="Race 10" style="text;html=1;align=right;verticalAlign=middle;whiteSpace=wrap;rounded=0;" parent="1" vertex="1">
          <mxGeometry x="499" y="301" width="90" height="30" as="geometry" />
        </mxCell>
        <mxCell id="H3SU6zbXUFuWfZ92cG2d-24" value="" style="endArrow=none;html=1;rounded=0;" parent="1" edge="1">
          <mxGeometry width="50" height="50" relative="1" as="geometry">
            <mxPoint x="596" y="454" as="sourcePoint" />
            <mxPoint x="596" y="190" as="targetPoint" />
          </mxGeometry>
        </mxCell>
        <mxCell id="H3SU6zbXUFuWfZ92cG2d-25" value="" style="endArrow=none;html=1;rounded=0;" parent="1" edge="1">
          <mxGeometry width="50" height="50" relative="1" as="geometry">
            <mxPoint x="596" y="316" as="sourcePoint" />
            <mxPoint x="780" y="316" as="targetPoint" />
          </mxGeometry>
        </mxCell>
        <mxCell id="H3SU6zbXUFuWfZ92cG2d-26" value="" style="endArrow=none;html=1;rounded=0;" parent="1" edge="1">
          <mxGeometry width="50" height="50" relative="1" as="geometry">
            <mxPoint x="617" y="506" as="sourcePoint" />
            <mxPoint x="777" y="506" as="targetPoint" />
          </mxGeometry>
        </mxCell>
        <mxCell id="H3SU6zbXUFuWfZ92cG2d-32" value="1st - Winner Race 10" style="text;html=1;align=center;verticalAlign=middle;whiteSpace=wrap;rounded=0;" parent="1" vertex="1">
          <mxGeometry x="641" y="312" width="116" height="30" as="geometry" />
        </mxCell>
        <mxCell id="H3SU6zbXUFuWfZ92cG2d-33" value="2nd - Loser Race 10" style="text;html=1;align=center;verticalAlign=middle;whiteSpace=wrap;rounded=0;" parent="1" vertex="1">
          <mxGeometry x="641" y="503" width="116" height="30" as="geometry" />
        </mxCell>
        <mxCell id="H3SU6zbXUFuWfZ92cG2d-36" value="4th - Loser Race 9" style="text;html=1;align=center;verticalAlign=middle;whiteSpace=wrap;rounded=0;" parent="1" vertex="1">
          <mxGeometry x="641" y="727" width="116" height="30" as="geometry" />
        </mxCell>
        <mxCell id="H3SU6zbXUFuWfZ92cG2d-37" value="Winner Race 5" style="text;html=1;align=center;verticalAlign=middle;whiteSpace=wrap;rounded=0;" parent="1" vertex="1">
          <mxGeometry x="479" y="186" width="90" height="30" as="geometry" />
        </mxCell>
        <mxCell id="H3SU6zbXUFuWfZ92cG2d-39" value="Loser Race 3" style="text;html=1;align=center;verticalAlign=middle;whiteSpace=wrap;rounded=0;" parent="1" vertex="1">
          <mxGeometry x="461" y="780" width="90" height="30" as="geometry" />
        </mxCell>
        <mxCell id="H3SU6zbXUFuWfZ92cG2d-40" value="Loser Race 2" style="text;html=1;align=center;verticalAlign=middle;whiteSpace=wrap;rounded=0;" parent="1" vertex="1">
          <mxGeometry x="461" y="850" width="90" height="30" as="geometry" />
        </mxCell>
        <mxCell id="H3SU6zbXUFuWfZ92cG2d-41" value="Winner Race 1" style="text;html=1;align=center;verticalAlign=middle;whiteSpace=wrap;rounded=0;" parent="1" vertex="1">
          <mxGeometry x="299" y="116" width="90" height="30" as="geometry" />
        </mxCell>
        <mxCell id="H3SU6zbXUFuWfZ92cG2d-42" value="Winner Race 2" style="text;html=1;align=center;verticalAlign=middle;whiteSpace=wrap;rounded=0;" parent="1" vertex="1">
          <mxGeometry x="299" y="256" width="90" height="30" as="geometry" />
        </mxCell>
        <mxCell id="IuvQdy2Z3pqtqVISLEcr-9" value="5th - Winner Race 8" style="text;html=1;align=center;verticalAlign=middle;whiteSpace=wrap;rounded=0;" parent="1" vertex="1">
          <mxGeometry x="636" y="817" width="126" height="30" as="geometry" />
        </mxCell>
        <mxCell id="IuvQdy2Z3pqtqVISLEcr-16" value="" style="endArrow=none;html=1;rounded=0;" parent="1" edge="1">
          <mxGeometry width="50" height="50" relative="1" as="geometry">
            <mxPoint x="518" y="190" as="sourcePoint" />
            <mxPoint x="596" y="190" as="targetPoint" />
          </mxGeometry>
        </mxCell>
        <mxCell id="IuvQdy2Z3pqtqVISLEcr-17" value="" style="endArrow=none;html=1;rounded=0;" parent="1" edge="1">
          <mxGeometry width="50" height="50" relative="1" as="geometry">
            <mxPoint x="518" y="454" as="sourcePoint" />
            <mxPoint x="596" y="454" as="targetPoint" />
          </mxGeometry>
        </mxCell>
        <mxCell id="IuvQdy2Z3pqtqVISLEcr-18" value="" style="endArrow=none;html=1;rounded=0;" parent="1" edge="1">
          <mxGeometry width="50" height="50" relative="1" as="geometry">
            <mxPoint x="617" y="730" as="sourcePoint" />
            <mxPoint x="777" y="730" as="targetPoint" />
          </mxGeometry>
        </mxCell>
        <mxCell id="Z-EwFcKrp6Wiq-JpFyMq-1" value="" style="group" parent="1" vertex="1" connectable="0">
          <mxGeometry x="89" y="154" width="320" height="70" as="geometry" />
        </mxCell>
        <mxCell id="Z-EwFcKrp6Wiq-JpFyMq-2" value="" style="endArrow=none;html=1;rounded=0;" parent="Z-EwFcKrp6Wiq-JpFyMq-1" edge="1">
          <mxGeometry width="50" height="50" relative="1" as="geometry">
            <mxPoint y="70" as="sourcePoint" />
            <mxPoint x="160" y="70" as="targetPoint" />
          </mxGeometry>
        </mxCell>
        <mxCell id="Z-EwFcKrp6Wiq-JpFyMq-3" value="" style="endArrow=none;html=1;rounded=0;" parent="Z-EwFcKrp6Wiq-JpFyMq-1" edge="1">
          <mxGeometry width="50" height="50" relative="1" as="geometry">
            <mxPoint y="140" as="sourcePoint" />
            <mxPoint x="160" y="140" as="targetPoint" />
          </mxGeometry>
        </mxCell>
        <mxCell id="Z-EwFcKrp6Wiq-JpFyMq-4" value="" style="endArrow=none;html=1;rounded=0;" parent="Z-EwFcKrp6Wiq-JpFyMq-1" edge="1">
          <mxGeometry width="50" height="50" relative="1" as="geometry">
            <mxPoint x="160" y="140" as="sourcePoint" />
            <mxPoint x="160" y="70" as="targetPoint" />
          </mxGeometry>
        </mxCell>
        <mxCell id="Z-EwFcKrp6Wiq-JpFyMq-5" value="Race 2" style="text;html=1;align=right;verticalAlign=middle;whiteSpace=wrap;rounded=0;" parent="Z-EwFcKrp6Wiq-JpFyMq-1" vertex="1">
          <mxGeometry x="60" y="90" width="90" height="30" as="geometry" />
        </mxCell>
        <mxCell id="Z-EwFcKrp6Wiq-JpFyMq-6" value="" style="endArrow=none;html=1;rounded=0;" parent="Z-EwFcKrp6Wiq-JpFyMq-1" edge="1">
          <mxGeometry width="50" height="50" relative="1" as="geometry">
            <mxPoint x="160" y="106" as="sourcePoint" />
            <mxPoint x="320" y="106" as="targetPoint" />
          </mxGeometry>
        </mxCell>
        <mxCell id="Z-EwFcKrp6Wiq-JpFyMq-7" value="" style="group" parent="1" vertex="1" connectable="0">
          <mxGeometry x="368" y="614" width="320" height="70" as="geometry" />
        </mxCell>
        <mxCell id="Z-EwFcKrp6Wiq-JpFyMq-8" value="" style="endArrow=none;html=1;rounded=0;" parent="Z-EwFcKrp6Wiq-JpFyMq-7" edge="1">
          <mxGeometry width="50" height="50" relative="1" as="geometry">
            <mxPoint x="62" as="sourcePoint" />
            <mxPoint x="222" as="targetPoint" />
          </mxGeometry>
        </mxCell>
        <mxCell id="Z-EwFcKrp6Wiq-JpFyMq-9" value="" style="endArrow=none;html=1;rounded=0;" parent="Z-EwFcKrp6Wiq-JpFyMq-7" edge="1">
          <mxGeometry width="50" height="50" relative="1" as="geometry">
            <mxPoint x="62" y="70" as="sourcePoint" />
            <mxPoint x="222" y="70" as="targetPoint" />
          </mxGeometry>
        </mxCell>
        <mxCell id="Z-EwFcKrp6Wiq-JpFyMq-10" value="" style="endArrow=none;html=1;rounded=0;" parent="Z-EwFcKrp6Wiq-JpFyMq-7" edge="1">
          <mxGeometry width="50" height="50" relative="1" as="geometry">
            <mxPoint x="222" y="70" as="sourcePoint" />
            <mxPoint x="222" as="targetPoint" />
          </mxGeometry>
        </mxCell>
        <mxCell id="Z-EwFcKrp6Wiq-JpFyMq-11" value="Race 9" style="text;html=1;align=right;verticalAlign=middle;whiteSpace=wrap;rounded=0;" parent="Z-EwFcKrp6Wiq-JpFyMq-7" vertex="1">
          <mxGeometry x="122" y="22" width="90" height="30" as="geometry" />
        </mxCell>
        <mxCell id="Z-EwFcKrp6Wiq-JpFyMq-12" value="" style="endArrow=none;html=1;rounded=0;" parent="Z-EwFcKrp6Wiq-JpFyMq-7" edge="1">
          <mxGeometry width="50" height="50" relative="1" as="geometry">
            <mxPoint x="222" y="36" as="sourcePoint" />
            <mxPoint x="412" y="36" as="targetPoint" />
          </mxGeometry>
        </mxCell>
        <mxCell id="Z-EwFcKrp6Wiq-JpFyMq-13" value="Loser Race 5" style="text;html=1;align=center;verticalAlign=middle;whiteSpace=wrap;rounded=0;" parent="1" vertex="1">
          <mxGeometry x="461" y="610" width="90" height="30" as="geometry" />
        </mxCell>
        <mxCell id="Z-EwFcKrp6Wiq-JpFyMq-14" value="Loser Race 6" style="text;html=1;align=center;verticalAlign=middle;whiteSpace=wrap;rounded=0;" parent="1" vertex="1">
          <mxGeometry x="461" y="680" width="90" height="30" as="geometry" />
        </mxCell>
        <mxCell id="Z-EwFcKrp6Wiq-JpFyMq-15" value="3rd - Winner Race 9" style="text;html=1;align=center;verticalAlign=middle;whiteSpace=wrap;rounded=0;" parent="1" vertex="1">
          <mxGeometry x="641" y="647" width="116" height="30" as="geometry" />
        </mxCell>
        <mxCell id="Z-EwFcKrp6Wiq-JpFyMq-16" value="Bracket Seed 4" style="text;html=1;align=center;verticalAlign=middle;whiteSpace=wrap;rounded=0;" parent="1" vertex="1">
          <mxGeometry x="119" y="220" width="90" height="30" as="geometry" />
        </mxCell>
        <mxCell id="Z-EwFcKrp6Wiq-JpFyMq-17" value="Bracket Seed 5" style="text;html=1;align=center;verticalAlign=middle;whiteSpace=wrap;rounded=0;" parent="1" vertex="1">
          <mxGeometry x="119" y="290" width="90" height="30" as="geometry" />
        </mxCell>
        <mxCell id="Z-EwFcKrp6Wiq-JpFyMq-21" value="6th - Loser Race 8" style="text;html=1;align=center;verticalAlign=middle;whiteSpace=wrap;rounded=0;" parent="1" vertex="1">
          <mxGeometry x="646" y="897" width="106" height="30" as="geometry" />
        </mxCell>
        <mxCell id="Z-EwFcKrp6Wiq-JpFyMq-22" value="" style="endArrow=none;html=1;rounded=0;" parent="1" edge="1">
          <mxGeometry width="50" height="50" relative="1" as="geometry">
            <mxPoint x="617" y="900" as="sourcePoint" />
            <mxPoint x="777" y="900" as="targetPoint" />
          </mxGeometry>
        </mxCell>
        <mxCell id="csj1tmw9l9uNEUCIM7JJ-13" value="" style="endArrow=none;html=1;rounded=0;" parent="1" edge="1">
          <mxGeometry width="50" height="50" relative="1" as="geometry">
            <mxPoint x="89" y="84" as="sourcePoint" />
            <mxPoint x="249" y="84" as="targetPoint" />
          </mxGeometry>
        </mxCell>
        <mxCell id="csj1tmw9l9uNEUCIM7JJ-14" value="" style="endArrow=none;html=1;rounded=0;" parent="1" edge="1">
          <mxGeometry width="50" height="50" relative="1" as="geometry">
            <mxPoint x="89" y="154" as="sourcePoint" />
            <mxPoint x="249" y="154" as="targetPoint" />
          </mxGeometry>
        </mxCell>
        <mxCell id="csj1tmw9l9uNEUCIM7JJ-15" value="" style="endArrow=none;html=1;rounded=0;" parent="1" edge="1">
          <mxGeometry width="50" height="50" relative="1" as="geometry">
            <mxPoint x="249" y="154" as="sourcePoint" />
            <mxPoint x="249" y="84" as="targetPoint" />
          </mxGeometry>
        </mxCell>
        <mxCell id="csj1tmw9l9uNEUCIM7JJ-16" value="Race 1" style="text;html=1;align=right;verticalAlign=middle;whiteSpace=wrap;rounded=0;" parent="1" vertex="1">
          <mxGeometry x="149" y="104" width="90" height="30" as="geometry" />
        </mxCell>
        <mxCell id="csj1tmw9l9uNEUCIM7JJ-17" value="" style="endArrow=none;html=1;rounded=0;" parent="1" edge="1">
          <mxGeometry width="50" height="50" relative="1" as="geometry">
            <mxPoint x="249" y="120" as="sourcePoint" />
            <mxPoint x="409" y="120" as="targetPoint" />
          </mxGeometry>
        </mxCell>
        <mxCell id="csj1tmw9l9uNEUCIM7JJ-18" value="Bracket Seed 1" style="text;html=1;align=center;verticalAlign=middle;whiteSpace=wrap;rounded=0;" parent="1" vertex="1">
          <mxGeometry x="119" y="80" width="90" height="30" as="geometry" />
        </mxCell>
        <mxCell id="csj1tmw9l9uNEUCIM7JJ-19" value="Bracket Seed 8" style="text;html=1;align=center;verticalAlign=middle;whiteSpace=wrap;rounded=0;" parent="1" vertex="1">
          <mxGeometry x="119" y="150" width="90" height="30" as="geometry" />
        </mxCell>
        <mxCell id="csj1tmw9l9uNEUCIM7JJ-20" value="" style="group" parent="1" vertex="1" connectable="0">
          <mxGeometry x="368" y="944" width="320" height="70" as="geometry" />
        </mxCell>
        <mxCell id="csj1tmw9l9uNEUCIM7JJ-21" value="" style="endArrow=none;html=1;rounded=0;" parent="csj1tmw9l9uNEUCIM7JJ-20" edge="1">
          <mxGeometry width="50" height="50" relative="1" as="geometry">
            <mxPoint x="62" as="sourcePoint" />
            <mxPoint x="222" as="targetPoint" />
          </mxGeometry>
        </mxCell>
        <mxCell id="csj1tmw9l9uNEUCIM7JJ-22" value="" style="endArrow=none;html=1;rounded=0;" parent="csj1tmw9l9uNEUCIM7JJ-20" edge="1">
          <mxGeometry width="50" height="50" relative="1" as="geometry">
            <mxPoint x="62" y="70" as="sourcePoint" />
            <mxPoint x="222" y="70" as="targetPoint" />
          </mxGeometry>
        </mxCell>
        <mxCell id="csj1tmw9l9uNEUCIM7JJ-23" value="" style="endArrow=none;html=1;rounded=0;" parent="csj1tmw9l9uNEUCIM7JJ-20" edge="1">
          <mxGeometry width="50" height="50" relative="1" as="geometry">
            <mxPoint x="222" y="70" as="sourcePoint" />
            <mxPoint x="222" as="targetPoint" />
          </mxGeometry>
        </mxCell>
        <mxCell id="csj1tmw9l9uNEUCIM7JJ-24" value="Race 7" style="text;html=1;align=right;verticalAlign=middle;whiteSpace=wrap;rounded=0;" parent="csj1tmw9l9uNEUCIM7JJ-20" vertex="1">
          <mxGeometry x="122" y="20" width="90" height="30" as="geometry" />
        </mxCell>
        <mxCell id="csj1tmw9l9uNEUCIM7JJ-25" value="" style="endArrow=none;html=1;rounded=0;" parent="csj1tmw9l9uNEUCIM7JJ-20" edge="1">
          <mxGeometry width="50" height="50" relative="1" as="geometry">
            <mxPoint x="222" y="36" as="sourcePoint" />
            <mxPoint x="412" y="36" as="targetPoint" />
          </mxGeometry>
        </mxCell>
        <mxCell id="csj1tmw9l9uNEUCIM7JJ-26" value="Loser Race 1" style="text;html=1;align=center;verticalAlign=middle;whiteSpace=wrap;rounded=0;" parent="1" vertex="1">
          <mxGeometry x="461" y="1010" width="90" height="30" as="geometry" />
        </mxCell>
        <mxCell id="csj1tmw9l9uNEUCIM7JJ-27" value="7th - Winner Race 8" style="text;html=1;align=center;verticalAlign=middle;whiteSpace=wrap;rounded=0;" parent="1" vertex="1">
          <mxGeometry x="641" y="977" width="116" height="30" as="geometry" />
        </mxCell>
        <mxCell id="csj1tmw9l9uNEUCIM7JJ-30" value="8th - Loser Race 8" style="text;html=1;align=center;verticalAlign=middle;whiteSpace=wrap;rounded=0;" parent="1" vertex="1">
          <mxGeometry x="646" y="1067" width="106" height="30" as="geometry" />
        </mxCell>
        <mxCell id="csj1tmw9l9uNEUCIM7JJ-31" value="" style="endArrow=none;html=1;rounded=0;" parent="1" edge="1">
          <mxGeometry width="50" height="50" relative="1" as="geometry">
            <mxPoint x="617" y="1070" as="sourcePoint" />
            <mxPoint x="777" y="1070" as="targetPoint" />
          </mxGeometry>
        </mxCell>
        <mxCell id="csj1tmw9l9uNEUCIM7JJ-32" value="Loser Race 4" style="text;html=1;align=center;verticalAlign=middle;whiteSpace=wrap;rounded=0;" parent="1" vertex="1">
          <mxGeometry x="461" y="940" width="90" height="30" as="geometry" />
        </mxCell>
        <mxCell id="csj1tmw9l9uNEUCIM7JJ-33" value="" style="endArrow=none;html=1;rounded=0;" parent="1" edge="1">
          <mxGeometry width="50" height="50" relative="1" as="geometry">
            <mxPoint x="289" y="385" as="sourcePoint" />
            <mxPoint x="429" y="385" as="targetPoint" />
          </mxGeometry>
        </mxCell>
        <mxCell id="csj1tmw9l9uNEUCIM7JJ-34" value="" style="endArrow=none;html=1;rounded=0;" parent="1" edge="1">
          <mxGeometry width="50" height="50" relative="1" as="geometry">
            <mxPoint x="289" y="525" as="sourcePoint" />
            <mxPoint x="429" y="525" as="targetPoint" />
          </mxGeometry>
        </mxCell>
        <mxCell id="csj1tmw9l9uNEUCIM7JJ-35" value="" style="endArrow=none;html=1;rounded=0;" parent="1" edge="1">
          <mxGeometry width="50" height="50" relative="1" as="geometry">
            <mxPoint x="429" y="525" as="sourcePoint" />
            <mxPoint x="429" y="385" as="targetPoint" />
          </mxGeometry>
        </mxCell>
        <mxCell id="csj1tmw9l9uNEUCIM7JJ-36" value="Race 6" style="text;html=1;align=right;verticalAlign=middle;whiteSpace=wrap;rounded=0;" parent="1" vertex="1">
          <mxGeometry x="329" y="439" width="90" height="30" as="geometry" />
        </mxCell>
        <mxCell id="csj1tmw9l9uNEUCIM7JJ-37" value="Winner Race 3" style="text;html=1;align=center;verticalAlign=middle;whiteSpace=wrap;rounded=0;" parent="1" vertex="1">
          <mxGeometry x="299" y="381" width="90" height="30" as="geometry" />
        </mxCell>
        <mxCell id="csj1tmw9l9uNEUCIM7JJ-38" value="Winner Race 4" style="text;html=1;align=center;verticalAlign=middle;whiteSpace=wrap;rounded=0;" parent="1" vertex="1">
          <mxGeometry x="299" y="521" width="90" height="30" as="geometry" />
        </mxCell>
        <mxCell id="csj1tmw9l9uNEUCIM7JJ-39" value="" style="group" parent="1" vertex="1" connectable="0">
          <mxGeometry x="89" y="419" width="320" height="70" as="geometry" />
        </mxCell>
        <mxCell id="csj1tmw9l9uNEUCIM7JJ-40" value="" style="endArrow=none;html=1;rounded=0;" parent="csj1tmw9l9uNEUCIM7JJ-39" edge="1">
          <mxGeometry width="50" height="50" relative="1" as="geometry">
            <mxPoint y="70" as="sourcePoint" />
            <mxPoint x="160" y="70" as="targetPoint" />
          </mxGeometry>
        </mxCell>
        <mxCell id="csj1tmw9l9uNEUCIM7JJ-41" value="" style="endArrow=none;html=1;rounded=0;" parent="csj1tmw9l9uNEUCIM7JJ-39" edge="1">
          <mxGeometry width="50" height="50" relative="1" as="geometry">
            <mxPoint y="140" as="sourcePoint" />
            <mxPoint x="160" y="140" as="targetPoint" />
          </mxGeometry>
        </mxCell>
        <mxCell id="csj1tmw9l9uNEUCIM7JJ-42" value="" style="endArrow=none;html=1;rounded=0;" parent="csj1tmw9l9uNEUCIM7JJ-39" edge="1">
          <mxGeometry width="50" height="50" relative="1" as="geometry">
            <mxPoint x="160" y="140" as="sourcePoint" />
            <mxPoint x="160" y="70" as="targetPoint" />
          </mxGeometry>
        </mxCell>
        <mxCell id="csj1tmw9l9uNEUCIM7JJ-43" value="Race 4" style="text;html=1;align=right;verticalAlign=middle;whiteSpace=wrap;rounded=0;" parent="csj1tmw9l9uNEUCIM7JJ-39" vertex="1">
          <mxGeometry x="60" y="90" width="90" height="30" as="geometry" />
        </mxCell>
        <mxCell id="csj1tmw9l9uNEUCIM7JJ-44" value="" style="endArrow=none;html=1;rounded=0;" parent="csj1tmw9l9uNEUCIM7JJ-39" edge="1">
          <mxGeometry width="50" height="50" relative="1" as="geometry">
            <mxPoint x="160" y="106" as="sourcePoint" />
            <mxPoint x="320" y="106" as="targetPoint" />
          </mxGeometry>
        </mxCell>
        <mxCell id="csj1tmw9l9uNEUCIM7JJ-45" value="Bracket Seed 2" style="text;html=1;align=center;verticalAlign=middle;whiteSpace=wrap;rounded=0;" parent="1" vertex="1">
          <mxGeometry x="119" y="485" width="90" height="30" as="geometry" />
        </mxCell>
        <mxCell id="csj1tmw9l9uNEUCIM7JJ-46" value="Bracket Seed 7" style="text;html=1;align=center;verticalAlign=middle;whiteSpace=wrap;rounded=0;" parent="1" vertex="1">
          <mxGeometry x="119" y="555" width="90" height="30" as="geometry" />
        </mxCell>
        <mxCell id="csj1tmw9l9uNEUCIM7JJ-47" value="" style="endArrow=none;html=1;rounded=0;" parent="1" edge="1">
          <mxGeometry width="50" height="50" relative="1" as="geometry">
            <mxPoint x="89" y="349" as="sourcePoint" />
            <mxPoint x="249" y="349" as="targetPoint" />
          </mxGeometry>
        </mxCell>
        <mxCell id="csj1tmw9l9uNEUCIM7JJ-48" value="" style="endArrow=none;html=1;rounded=0;" parent="1" edge="1">
          <mxGeometry width="50" height="50" relative="1" as="geometry">
            <mxPoint x="89" y="419" as="sourcePoint" />
            <mxPoint x="249" y="419" as="targetPoint" />
          </mxGeometry>
        </mxCell>
        <mxCell id="csj1tmw9l9uNEUCIM7JJ-49" value="" style="endArrow=none;html=1;rounded=0;" parent="1" edge="1">
          <mxGeometry width="50" height="50" relative="1" as="geometry">
            <mxPoint x="249" y="419" as="sourcePoint" />
            <mxPoint x="249" y="349" as="targetPoint" />
          </mxGeometry>
        </mxCell>
        <mxCell id="csj1tmw9l9uNEUCIM7JJ-50" value="Race 3" style="text;html=1;align=right;verticalAlign=middle;whiteSpace=wrap;rounded=0;" parent="1" vertex="1">
          <mxGeometry x="149" y="369" width="90" height="30" as="geometry" />
        </mxCell>
        <mxCell id="csj1tmw9l9uNEUCIM7JJ-51" value="" style="endArrow=none;html=1;rounded=0;" parent="1" edge="1">
          <mxGeometry width="50" height="50" relative="1" as="geometry">
            <mxPoint x="249" y="385" as="sourcePoint" />
            <mxPoint x="409" y="385" as="targetPoint" />
          </mxGeometry>
        </mxCell>
        <mxCell id="csj1tmw9l9uNEUCIM7JJ-52" value="Bracket Seed 3" style="text;html=1;align=center;verticalAlign=middle;whiteSpace=wrap;rounded=0;" parent="1" vertex="1">
          <mxGeometry x="119" y="345" width="90" height="30" as="geometry" />
        </mxCell>
        <mxCell id="csj1tmw9l9uNEUCIM7JJ-53" value="Bracket Seed 6" style="text;html=1;align=center;verticalAlign=middle;whiteSpace=wrap;rounded=0;" parent="1" vertex="1">
          <mxGeometry x="119" y="415" width="90" height="30" as="geometry" />
        </mxCell>
        <mxCell id="-aI-B0rRfeycjIkAg7yI-1" value="8 Team Single Elimination with Consolation Races" style="text;html=1;align=left;verticalAlign=middle;resizable=0;points=[];autosize=1;strokeColor=none;fillColor=none;fontStyle=1;fontSize=18;" vertex="1" parent="1">
          <mxGeometry x="219" y="3" width="420" height="40" as="geometry" />
        </mxCell>
        <mxCell id="-aI-B0rRfeycjIkAg7yI-2" value="" style="endArrow=none;html=1;rounded=0;" edge="1" parent="1">
          <mxGeometry width="50" height="50" relative="1" as="geometry">
            <mxPoint x="617" y="96" as="sourcePoint" />
            <mxPoint x="777" y="96" as="targetPoint" />
          </mxGeometry>
        </mxCell>
        <mxCell id="-aI-B0rRfeycjIkAg7yI-3" value="Division" style="text;html=1;align=center;verticalAlign=middle;whiteSpace=wrap;rounded=0;" vertex="1" parent="1">
          <mxGeometry x="641" y="93" width="116" height="30" as="geometry" />
        </mxCell>
      </root>
    </mxGraphModel>
  </diagram>
</mxfile>
